<svg xmlns="http://www.w3.org/2000/svg" xml:space="preserve" width="2000" height="1500" data-id="lg_WkYWwXvVfbF786lCJd" data-version="1" viewBox="0 0 2000 1500"><path fill="#3a3a3a" stroke="transparent" d="M0 0h2000v1500H0z"/><g data-padding="20"><g transform="translate(-1647.059 -1241.526)scale(2.57847)"><rect width="259.132" height="290.41" x="496.78" y="227.141" fill="none" rx="0" ry="0" transform="translate(550.94 400.02)"/><path fill="#ff2aea" d="M1074.726 852.606h-22.62l48.58-144.69h35.21l49.6 144.69h-22.88l-43.94-135.7Zm80.7-43.18h-73.76l.77-16.96h71.96Zm89.42 45.75q-8.99 0-17.09-2.57-8.09-2.57-14.26-7.71t-9.9-13.49q-3.72-8.36-3.72-19.92h20.04q0 5.91 2.06 11.69t7.32 9.64q5.27 3.85 15.04 3.85 12.08 0 17.99-6.81t5.91-24.03v-93.29h21.33v90.21q0 12.08-2.18 21.85-2.19 9.76-7.2 16.57t-13.62 10.41-21.72 3.6m44.72-130.56h-50.37v-16.7h50.37Zm-286.46-74.47h-251.52a5.24 5.24 0 0 0-5.24 5.24v188.64a5.24 5.24 0 0 0 5.24 5.24h120.52v31.44h-47.16a5.24 5.24 0 1 0 0 10.48h104.8a5.24 5.24 0 1 0 0-10.48h-47.16v-31.44h120.52a5.24 5.24 0 0 0 5.24-5.24v-188.64a5.24 5.24 0 0 0-5.24-5.24m-5.24 188.64h-241.04v-178.16h241.04Z"/><path fill="#ff2aea" d="M831.706 774.334a5.24 5.24 0 0 0 7.336 0 5.24 5.24 0 0 0 0-7.336l-17.187-17.292 17.292-17.292a5.24 5.24 0 1 0-7.441-7.336l-20.96 20.96a5.24 5.24 0 0 0 0 7.336Zm83.892 0a5.24 5.24 0 0 0 7.336 0l20.96-20.96a5.24 5.24 0 0 0 0-7.336l-20.96-20.96a5.24 5.24 0 1 0-7.336 7.336l17.24 17.292-17.292 17.292a5.24 5.24 0 0 0 0 7.336m-49.99 22.375 1.258.157a5.24 5.24 0 0 0 5.083-3.982l20.96-83.84a5.24 5.24 0 1 0-10.166-2.516l-20.96 83.84a5.24 5.24 0 0 0 3.825 6.34"/></g><path fill="transparent" stroke="transparent" stroke-width="2.674" d="M250 362.3h1500v775.4H250z"/></g></svg>